<svg width="88" height="30" viewBox="0 0 88 30" fill="none" xmlns="http://www.w3.org/2000/svg">
<path fill-rule="evenodd" clip-rule="evenodd" d="M8.31414 13.2364C7.00993 13.2364 5.73502 12.8483 4.65061 12.1211C3.5662 11.3938 2.72101 10.3602 2.22191 9.1509C1.72281 7.94158 1.59223 6.61087 1.84667 5.32707C2.1011 4.04326 2.72914 2.86401 3.65135 1.93843C4.57356 1.01286 5.74853 0.382535 7.02768 0.12717C8.30682 -0.128195 9.63269 0.00286757 10.8376 0.503784C12.0425 1.0047 13.0724 1.85297 13.797 2.94133C14.5216 4.02969 14.9083 5.30926 14.9083 6.61822C14.9059 8.37272 14.2103 10.0546 12.9742 11.2953C11.7381 12.5359 10.0623 13.234 8.31414 13.2364ZM8.31414 4.10367C7.81861 4.10367 7.33422 4.25114 6.9222 4.52745C6.51019 4.80375 6.18907 5.19647 5.99944 5.65594C5.80981 6.11541 5.76019 6.621 5.85686 7.10878C5.95354 7.59655 6.19215 8.0446 6.54254 8.39627C6.89293 8.74793 7.33935 8.98742 7.82536 9.08445C8.31136 9.18147 8.81511 9.13167 9.27292 8.94135C9.73072 8.75103 10.122 8.42874 10.3973 8.01522C10.6726 7.60171 10.8196 7.11555 10.8196 6.61822C10.8187 5.95157 10.5545 5.31246 10.0848 4.84107C9.61515 4.36968 8.97836 4.10449 8.31414 4.10367Z" fill="#A33662"/>
<path d="M16.6345 23.4036C16.6345 21.1897 15.7582 19.0665 14.1984 17.501C12.6386 15.9355 10.5231 15.0561 8.31724 15.0561C6.11137 15.0561 3.99585 15.9355 2.43607 17.501C0.876286 19.0665 8.62809e-06 21.1897 8.62809e-06 23.4036V29.5544C-0.000285787 29.5813 0.00695992 29.6077 0.0209181 29.6307C0.0348762 29.6536 0.054984 29.6722 0.0789444 29.6842C0.102905 29.6962 0.129752 29.7013 0.156418 29.6987C0.183085 29.6961 0.208496 29.6861 0.229749 29.6697L4.03289 26.8311C4.0503 26.8174 4.06439 26.7999 4.07407 26.7799C4.08375 26.76 4.08878 26.738 4.08877 26.7158V23.4036C4.11862 22.2984 4.57705 21.2485 5.36649 20.4773C6.15594 19.7062 7.21407 19.2747 8.31569 19.2747C9.41731 19.2747 10.4754 19.7062 11.2649 20.4773C12.0543 21.2485 12.5128 22.2984 12.5426 23.4036V29.5544C12.5426 29.5933 12.558 29.6305 12.5853 29.658C12.6127 29.6855 12.6498 29.7009 12.6885 29.7009H16.4886C16.5273 29.7009 16.5644 29.6855 16.5917 29.658C16.6191 29.6305 16.6345 29.5933 16.6345 29.5544V23.4036Z" fill="#A33662"/>
<path d="M29.3075 11.0491C29.3136 11.5434 29.1732 12.0283 28.9041 12.4423C28.6349 12.8563 28.2492 13.1807 27.796 13.3742C27.3427 13.5676 26.8424 13.6214 26.3586 13.5288C25.8747 13.4362 25.4293 13.2012 25.0788 12.8539C24.7284 12.5066 24.4887 12.0625 24.3903 11.5781C24.292 11.0937 24.3393 10.5909 24.5263 10.1336C24.7134 9.67633 25.0317 9.28516 25.4407 9.00985C25.8498 8.73455 26.3312 8.58753 26.8238 8.58749C27.4759 8.59144 28.1007 8.85109 28.5647 9.31099C29.0288 9.7709 29.2953 10.3946 29.3075 11.0491Z" fill="#A33662"/>
<path d="M28.73 15.4799H24.9486C24.8697 15.4799 24.8058 15.5441 24.8058 15.6233V29.5545C24.8058 29.6337 24.8697 29.6979 24.9486 29.6979H28.73C28.8089 29.6979 28.8728 29.6337 28.8728 29.5545V15.6233C28.8728 15.5441 28.8089 15.4799 28.73 15.4799Z" fill="#A33662"/>
<path d="M45.321 21.6494V29.5544C45.321 29.5928 45.3061 29.6295 45.2794 29.6569C45.2527 29.6843 45.2164 29.7001 45.1782 29.7009H41.3968C41.3586 29.7001 41.3223 29.6843 41.2956 29.6569C41.2689 29.6295 41.254 29.5928 41.254 29.5544V22.3442C41.254 20.3749 40.186 19.247 38.5126 19.247H38.3853C37.651 19.2862 36.9599 19.608 36.4557 20.1453C35.9516 20.6826 35.6731 21.3943 35.6781 22.1323V29.5544C35.6781 29.5928 35.6632 29.6295 35.6365 29.6569C35.6098 29.6843 35.5735 29.7001 35.5353 29.7009H31.7601C31.7411 29.7009 31.7223 29.6971 31.7047 29.6897C31.6872 29.6823 31.6713 29.6715 31.658 29.6578C31.6447 29.6442 31.6342 29.628 31.6273 29.6103C31.6203 29.5925 31.6169 29.5735 31.6173 29.5544V15.6263C31.6169 15.6072 31.6203 15.5882 31.6273 15.5705C31.6342 15.5527 31.6447 15.5366 31.658 15.5229C31.6713 15.5093 31.6872 15.4984 31.7047 15.491C31.7223 15.4836 31.7411 15.4798 31.7601 15.4798H35.5415C35.5797 15.4807 35.616 15.4964 35.6427 15.5238C35.6694 15.5512 35.6843 15.588 35.6843 15.6263V17.1001C35.6858 17.1035 35.6882 17.1063 35.6912 17.1083C35.6942 17.1103 35.6978 17.1113 35.7014 17.1113C35.7028 17.1113 35.7041 17.1112 35.7054 17.1109C35.7076 17.1104 35.7097 17.1095 35.7116 17.1083C35.7146 17.1063 35.717 17.1035 35.7185 17.1001C36.1546 16.4929 36.731 16.0009 37.3983 15.6666C38.0657 15.3323 38.8039 15.1655 39.5495 15.1807C43.1292 15.1901 45.321 17.6516 45.321 21.6494Z" fill="#A33662"/>
<path fill-rule="evenodd" clip-rule="evenodd" d="M61.4463 23.5594H51.347C51.3458 23.5594 51.3446 23.5595 51.3434 23.5597C51.3419 23.56 51.3405 23.5605 51.3391 23.5611C51.3366 23.5622 51.3344 23.5639 51.3326 23.566L51.3315 23.5674C51.3303 23.5691 51.3294 23.5711 51.3288 23.5731C51.3286 23.5741 51.3284 23.5751 51.3283 23.5761C51.3281 23.5778 51.3281 23.5795 51.3284 23.5812C51.7103 25.51 53.0328 26.5133 54.9608 26.5133C56.1685 26.5133 57.4445 25.9898 57.9723 25.1891C57.9921 25.157 58.0239 25.134 58.0605 25.1253C58.0971 25.1165 58.1357 25.1227 58.1679 25.1423L61.1017 26.934C61.1336 26.954 61.1566 26.9855 61.1658 27.0221C61.1751 27.0587 61.1699 27.0974 61.1514 27.1303C60.0772 28.9375 57.7363 29.9907 54.8739 29.9907C52.9254 30.0188 51.0452 29.2717 49.6439 27.9126C48.2427 26.5535 47.4345 24.6929 47.3959 22.7376C47.3574 20.7822 48.0916 18.8911 49.4381 17.4774C50.7847 16.0637 52.634 15.2425 54.582 15.1932C55.4934 15.151 56.4039 15.2951 57.2581 15.6167C58.1123 15.9384 58.8925 16.4309 59.5512 17.0644C60.21 17.6979 60.7337 18.4592 61.0904 19.302C61.4471 20.1448 61.6295 21.0515 61.6264 21.9672C61.6285 22.4792 61.5922 22.9906 61.5177 23.4971C61.5161 23.5147 61.5078 23.5311 61.4945 23.5427C61.4812 23.5543 61.4639 23.5603 61.4463 23.5594ZM57.5345 20.9545C57.5358 20.9545 57.5371 20.9544 57.5384 20.9542C57.5398 20.9539 57.5411 20.9535 57.5424 20.9529C57.5449 20.9517 57.5471 20.9501 57.5489 20.948C57.5507 20.9459 57.552 20.9435 57.5527 20.9408C57.553 20.9398 57.5532 20.9388 57.5533 20.9377C57.5535 20.9361 57.5534 20.9344 57.5531 20.9327C57.37 19.5243 56.0785 18.4929 54.5851 18.4929C52.89 18.4929 51.7693 19.409 51.3874 20.9296C51.3864 20.9325 51.3861 20.9356 51.3865 20.9387C51.387 20.9417 51.3882 20.9446 51.3901 20.9471C51.3909 20.9482 51.3918 20.9492 51.3928 20.95L51.3941 20.951C51.395 20.9517 51.396 20.9523 51.3971 20.9528C51.3999 20.9541 51.403 20.9547 51.406 20.9545H57.5345Z" fill="#A33662"/>
<path d="M72.9613 15.5048L72.7409 19.1816C72.74 19.1924 72.7367 19.2028 72.7312 19.2121C72.7258 19.2214 72.7183 19.2294 72.7093 19.2354C72.7003 19.2414 72.6902 19.2452 72.6795 19.2467C72.6688 19.2482 72.658 19.2473 72.6477 19.2439C72.0887 19.0582 71.5042 18.9615 70.9154 18.9573C70.6466 18.9624 70.3803 19.0108 70.1268 19.1006C69.4481 19.3414 68.8616 19.7894 68.4496 20.3817C68.0375 20.9741 67.8207 21.6811 67.8294 22.4035V29.5701C67.8294 29.6089 67.814 29.6462 67.7866 29.6736C67.7593 29.7011 67.7222 29.7165 67.6835 29.7165H63.9052C63.8665 29.7165 63.8293 29.7011 63.802 29.6736C63.7746 29.6462 63.7592 29.6089 63.7592 29.5701V15.6263C63.7592 15.5875 63.7746 15.5503 63.802 15.5228C63.8293 15.4953 63.8665 15.4799 63.9052 15.4799H67.6835C67.7222 15.4799 67.7593 15.4953 67.7866 15.5228C67.814 15.5503 67.8294 15.5875 67.8294 15.6263V17.0971C67.8294 17.1012 67.831 17.1052 67.8339 17.1081C67.8368 17.111 67.8408 17.1126 67.8449 17.1126C67.847 17.1126 67.8491 17.1122 67.851 17.1114C67.8528 17.1106 67.8545 17.1095 67.8559 17.1081C67.8588 17.1052 67.8604 17.1012 67.8604 17.0971C68.2297 16.5305 68.7287 16.0609 69.3158 15.7275C69.9029 15.3941 70.5611 15.2066 71.2351 15.1808C71.8049 15.1617 72.3735 15.244 72.9147 15.4238C72.9313 15.4289 72.9453 15.4401 72.9539 15.4551C72.9626 15.4701 72.9652 15.4879 72.9613 15.5048Z" fill="#A33662"/>
<path fill-rule="evenodd" clip-rule="evenodd" d="M88 15.6263V29.5544C88 29.5933 87.9846 29.6305 87.9573 29.658C87.9299 29.6854 87.8928 29.7009 87.8541 29.7009H84.0727C84.0345 29.7001 83.9982 29.6843 83.9715 29.6569C83.9448 29.6295 83.9298 29.5927 83.9299 29.5544V28.0837C83.9299 28.0796 83.9282 28.0756 83.9253 28.0727C83.9224 28.0698 83.9185 28.0681 83.9143 28.0681C83.9102 28.0681 83.9063 28.0698 83.9034 28.0727C83.9005 28.0756 83.8988 28.0796 83.8988 28.0837C83.1848 29.2117 81.5083 30 79.7449 30C76.0535 30 73.1383 26.6971 73.1383 22.5841C73.1383 18.4711 76.0535 15.1994 79.7449 15.1994C81.4803 15.1994 83.1848 15.9877 83.8988 17.1157C83.8988 17.117 83.899 17.1184 83.8993 17.1196C83.9 17.1223 83.9014 17.1247 83.9034 17.1267C83.9063 17.1296 83.9102 17.1313 83.9143 17.1313C83.9165 17.1313 83.9186 17.1308 83.9206 17.13C83.9223 17.1292 83.9239 17.1281 83.9253 17.1267C83.9282 17.1238 83.9299 17.1198 83.9299 17.1157V15.6263C83.9298 15.588 83.9448 15.5512 83.9715 15.5238C83.9982 15.4964 84.0345 15.4806 84.0727 15.4798H87.8541C87.8928 15.4798 87.9299 15.4952 87.9573 15.5227C87.9846 15.5502 88 15.5874 88 15.6263ZM83.9299 24.3197V20.8922C83.933 20.8789 83.933 20.865 83.9299 20.8517C83.5799 20.2963 83.0953 19.8392 82.5214 19.5232C81.9474 19.2071 81.303 19.0424 80.6483 19.0444C79.7146 19.0444 78.8191 19.4167 78.1588 20.0794C77.4986 20.742 77.1277 21.6408 77.1277 22.5779C77.1277 23.515 77.4986 24.4138 78.1588 25.0764C78.8191 25.7391 79.7146 26.1113 80.6483 26.1113C81.2969 26.1187 81.9369 25.9625 82.5097 25.6571C83.0825 25.3516 83.5697 24.9068 83.9268 24.3633C83.933 24.3496 83.9341 24.3341 83.9299 24.3197Z" fill="#A33662"/>
</svg>
